<svg xmlns="http://www.w3.org/2000/svg" xmlns:xlink="http://www.w3.org/1999/xlink" width="15" height="18" viewBox="0 0 15 18">
  <defs>
    <clipPath id="clip-Image_location">
      <rect width="15" height="18"/>
    </clipPath>
  </defs>
  <g id="Image_location" clip-path="url(#clip-Image_location)">
    <path id="Shape" d="M7.5,18h0l-.142-.124C3.247,14.282,0,11.444,0,7.361A7.44,7.44,0,0,1,7.5,0,7.44,7.44,0,0,1,15,7.361c0,4.083-3.248,6.922-7.36,10.516L7.5,18Zm0-16.5a6,6,0,1,0,6,6A6.006,6.006,0,0,0,7.5,1.5Zm-.531,9.032h0L4.19,7.811,5.25,6.75,6.968,8.41,10.19,5.25l1.06,1.061-4.281,4.22Z" fill="#fff"/>
  </g>
</svg>
