<svg xmlns="http://www.w3.org/2000/svg" xmlns:xlink="http://www.w3.org/1999/xlink" width="18" height="18" viewBox="0 0 18 18">
  <defs>
    <clipPath id="clip-Image_phone">
      <rect width="18" height="18"/>
    </clipPath>
  </defs>
  <g id="Image_phone" clip-path="url(#clip-Image_phone)">
    <path id="Shape" d="M8.834,18h0c-1.584,0-3.377-1.173-5.05-3.3a19.445,19.445,0,0,1-3.394-6.9c-.846-3.358-.3-5.837,1.5-6.8L3.952,0,6.891,5.918,4.909,6.924c-.241.583.417,2.259,1.165,3.476.5.806.945,1.281,1.233,1.3.065-.043,1.923-.987,1.942-1l2.99,5.949-.881.445-1.2.6A3.1,3.1,0,0,1,8.834,18ZM3.287,1.947l-.743.378c-1.152.62-1.439,2.343-.807,4.85C2.8,11.4,6.179,16.514,8.774,16.514a1.83,1.83,0,0,0,.786-.174l.707-.355L8.615,12.7l-.746.374a1.151,1.151,0,0,1-.523.124,3.162,3.162,0,0,1-2.183-1.52A9.346,9.346,0,0,1,3.634,8.532c-.374-1.449-.171-2.511.558-2.914l.732-.374-1.637-3.3Zm12.42,7.8h0l-1.337-.41a5.922,5.922,0,0,0-.443-4.412,5.622,5.622,0,0,0-3.339-2.8l.4-1.382a7.017,7.017,0,0,1,4.167,3.492,7.388,7.388,0,0,1,.554,5.507Zm-2.318-.712h0l-1.3-.4A3.4,3.4,0,0,0,11.828,6.1,3.227,3.227,0,0,0,9.905,4.487l.39-1.347a4.6,4.6,0,0,1,2.732,2.289,4.845,4.845,0,0,1,.362,3.609Zm-2.284-.7h0L8.983,7.684,9.616,5.5A2.213,2.213,0,0,1,10.93,6.6a2.33,2.33,0,0,1,.175,1.737Z" transform="translate(1)" fill="#fff"/>
  </g>
</svg>
