<svg xmlns="http://www.w3.org/2000/svg" xmlns:xlink="http://www.w3.org/1999/xlink" width="48" height="48" viewBox="0 0 48 48">
  <defs>
    <clipPath id="clip-image_twitter">
      <rect width="48" height="48"/>
    </clipPath>
  </defs>
  <g id="image_twitter" clip-path="url(#clip-image_twitter)">
    <g id="Group_4" data-name="Group 4" transform="translate(-56)">
      <g id="Oval" transform="translate(56)" fill="none" stroke="#fff" stroke-miterlimit="10" stroke-width="1" opacity="0.305">
        <circle cx="24" cy="24" r="24" stroke="none"/>
        <circle cx="24" cy="24" r="23.5" fill="none"/>
      </g>
      <path id="twitter" d="M16,1.54a6.57,6.57,0,0,1-1.885.517A3.3,3.3,0,0,0,15.559.241a6.568,6.568,0,0,1-2.085.8A3.284,3.284,0,0,0,7.88,4.031,9.323,9.323,0,0,1,1.115.6,3.287,3.287,0,0,0,2.131,4.984,3.277,3.277,0,0,1,.645,4.573a3.287,3.287,0,0,0,2.633,3.26A3.29,3.29,0,0,1,1.8,7.889a3.287,3.287,0,0,0,3.067,2.279A6.606,6.606,0,0,1,0,11.529,9.284,9.284,0,0,0,5.031,13a9.284,9.284,0,0,0,9.331-9.765A6.618,6.618,0,0,0,16,1.54Z" transform="translate(72 18)" fill="#fff"/>
    </g>
  </g>
</svg>
