<svg xmlns="http://www.w3.org/2000/svg" xmlns:xlink="http://www.w3.org/1999/xlink" width="48" height="48" viewBox="0 0 48 48">
  <defs>
    <clipPath id="clip-Image_ig">
      <rect width="48" height="48"/>
    </clipPath>
  </defs>
  <g id="Image_ig" clip-path="url(#clip-Image_ig)">
    <g id="Group_3" data-name="Group 3" transform="translate(-112)">
      <g id="Oval" transform="translate(112)" fill="none" stroke="#fff" stroke-miterlimit="10" stroke-width="1" opacity="0.305">
        <circle cx="24" cy="24" r="24" stroke="none"/>
        <circle cx="24" cy="24" r="23.5" fill="none"/>
      </g>
      <path id="instagram" d="M8,16c-2.144,0-2.431-.009-3.3-.049C1.79,15.818.181,14.209.048,11.3.009,10.448,0,10.165,0,8S.009,5.553.048,4.7C.181,1.792,1.79.183,4.7.05,5.563.009,5.822,0,8,0s2.455.009,3.3.05c2.912.132,4.52,1.74,4.651,4.652C15.991,5.569,16,5.856,16,8s-.009,2.432-.049,3.3c-.131,2.91-1.739,4.519-4.651,4.653C10.432,15.991,10.145,16,8,16ZM8,1.443c-2.113,0-2.376.006-3.232.045-2.169.1-3.181,1.111-3.28,3.28C1.452,5.589,1.441,5.837,1.441,8s.011,2.411.047,3.232c.1,2.168,1.113,3.18,3.28,3.28.841.039,1.093.047,3.232.047,2.115,0,2.371-.008,3.233-.047,2.168-.1,3.18-1.109,3.281-3.28.037-.848.045-1.1.045-3.232s-.008-2.382-.045-3.232C14.413,2.6,13.4,1.588,11.233,1.49,10.391,1.451,10.138,1.443,8,1.443ZM8,12.108A4.108,4.108,0,1,1,12.108,8,4.113,4.113,0,0,1,8,12.108ZM8,5.333A2.667,2.667,0,1,0,10.668,8,2.67,2.67,0,0,0,8,5.333Zm4.27-.643a.96.96,0,1,1,.961-.96A.961.961,0,0,1,12.27,4.691Z" transform="translate(128 16)" fill="#fff"/>
    </g>
  </g>
</svg>
